<?xml version="1.0" encoding="UTF-8"?>
<svg width="64" height="64" viewBox="0 0 64 64" fill="none" xmlns="http://www.w3.org/2000/svg">
    <path d="M56.6154 21.5628L46.4739 25.5013C42.8308 21.7597 37.6123 16.6397 37.3169 16.3443C35.3477 13.4889 31.3108 12.7013 28.3569 14.7689L12.8985 25.7966C7.68001 29.4397 10.4369 37.9074 17.1323 37.4151L28.2585 43.3228L28.9477 54.1536C29.0462 56.2213 30.8185 57.8951 32.8862 57.8951C35.2492 57.8951 37.0216 55.9259 36.8246 53.6613L36.0369 40.5659C35.9385 39.1874 35.1508 38.0059 33.9692 37.3166L25.3046 32.6889C30.1292 29.2428 35.2492 25.6982 36.1354 25.0089L43.2246 31.9997C44.1108 32.8859 45.5877 33.2797 46.9662 32.7874L59.2739 27.9628C63.4092 26.2889 60.8492 19.8889 56.6154 21.5628Z" fill="#CCAC00"/>
    <path d="M10.1416 36.332L9.64925 46.2766L3.15078 57.5997C2.06771 59.4705 2.65848 61.932 4.62771 63.0151C6.40001 63.9997 8.86155 63.6059 10.0431 61.5382L17.0339 49.329C17.3292 48.7382 17.5262 48.1474 17.5262 47.4582L17.8216 39.9751L16.64 39.3843C16.5416 39.3843 12.8 39.5813 10.1416 36.332Z" fill="#CCAC00"/>
    <path d="M40.8616 13.5876C45.4892 13.5876 48.64 8.95988 46.9662 4.62757C45.9816 2.06757 43.6185 0.492188 40.8616 0.492188C36.3323 0.492188 33.0831 5.11988 34.7569 9.45219C35.7416 11.9137 38.1046 13.5876 40.8616 13.5876Z" fill="#CCAC00"/>
    <path d="M57.5016 19.3967C55.8277 17.6244 53.6615 16.2459 51.2985 15.4582C50.8062 15.3597 50.4123 15.5567 50.1169 15.9505C48.8369 18.0182 48.2462 20.3813 48.1477 22.7444C55.8277 19.889 56.2216 19.4951 57.5016 19.3967Z" fill="#1F1F1F"/>
    <path d="M52.1846 32.8859C54.5477 35.3474 57.8954 36.6274 58.4862 36.6274C58.88 36.6274 59.1754 36.4305 59.3723 36.1351C60.6523 33.969 61.3416 31.5074 61.3416 29.0459C60.9477 29.3413 60.4554 29.6367 59.9631 29.8336L52.1846 32.8859Z" fill="#1F1F1F"/>
</svg> 