<?xml version="1.0" encoding="UTF-8"?>
<svg width="64" height="64" viewBox="0 0 64 64" fill="none" xmlns="http://www.w3.org/2000/svg">
    <path d="M33.604 61C32.9268 61 32.2762 60.7704 31.7403 60.3376C31.1117 59.8297 30.7245 58.1069 30.648 58.3031L29.4777 45.9579C29.4585 45.7621 29.5189 45.5678 29.644 45.4177L37.5905 35.8607L34.9274 24.2736L27.7568 28.2469C27.6316 28.3161 27.4874 28.347 27.3446 28.3367L16.6526 27.53C15.176 27.4181 14.0543 26.1727 14.0984 24.6917L14.1249 23.8099C14.147 23.0547 14.4665 22.3599 15.0244 21.8505C15.5823 21.3412 16.3037 21.0865 17.0574 21.1321L26.2405 21.6945L36.3215 16.5435C36.4069 16.4994 36.4997 16.4729 36.5954 16.4655L45.8344 15.6985C46.0184 15.6824 46.2039 15.7383 46.3496 15.8531L55.4164 22.9767C55.5312 23.068 55.6181 23.1902 55.6622 23.33L58.3165 31.5739C58.7051 32.781 58.0824 34.0809 56.8988 34.5358L55.7874 34.9627C55.175 35.1967 54.4845 35.1688 53.8942 34.8847C53.3039 34.6005 52.852 34.0779 52.6532 33.4523L50.5643 26.8381L46.9532 23.91L49.3881 38.0129C49.391 38.0262 49.3925 38.0409 49.394 38.0541L50.3582 46.4614L56.544 52.7841C57.604 53.8676 57.5937 55.6194 56.522 56.6897L56.017 57.1946C55.493 57.7187 54.7966 58.0072 54.0547 58.0072C54.0488 58.0072 54.0414 58.0072 54.0355 58.0072C53.2862 58.0013 52.587 57.704 52.0644 57.1666L44.5816 49.4778C44.4756 49.3688 44.4064 49.2304 44.3829 49.0818L42.8577 39.6028L35.7312 47.6818L36.8132 57.6716C36.9884 59.288 35.8166 60.7586 34.2017 60.9485L33.9603 60.9765C33.841 60.9941 33.7218 61 33.604 61Z" fill="#15155B"/>
    <path d="M37.3373 14.7769C34.0898 14.7769 31.4489 12.1345 31.4489 8.88847C31.4489 5.64245 34.0913 3 37.3373 3C40.5834 3 43.2258 5.64245 43.2258 8.88847C43.2258 12.1345 40.5848 14.7769 37.3373 14.7769Z" fill="#15155B"/>
    <path d="M11.0216 39.211C7.88456 39.211 5.33337 36.6583 5.33337 33.5227C5.33337 30.3871 7.88603 27.8345 11.0216 27.8345C14.1573 27.8345 16.7099 30.3871 16.7099 33.5227C16.7099 36.6583 14.1573 39.211 11.0216 39.211Z" fill="#15155B"/>
</svg> 