<?xml version="1.0" encoding="UTF-8"?>
<svg width="64" height="64" viewBox="0 0 64 64" fill="none" xmlns="http://www.w3.org/2000/svg">
<g clip-path="url(#clip0_52791_4944)">
<path d="M34.933 52.6895C33.3252 52.6895 31.728 53.3716 30.6094 54.6958C27.4957 58.3832 30.1636 64.0003 34.9272 64.0003C36.5351 64.0003 38.1322 63.3181 39.2508 61.9935C42.3679 58.3021 39.6917 52.689 34.933 52.6895Z" fill="white"/>
<path d="M48.5192 22.0755C47.6964 21.159 42.2093 15.0434 41.3885 14.1289C40.9925 13.687 40.4544 13.3974 39.867 13.3095C26.6407 11.3184 34.9213 12.542 26.982 11.2901C26.3126 11.1812 25.6276 11.3423 25.0778 11.7388L15.973 18.2992C15.3182 18.7713 14.9252 19.5247 14.913 20.3319L14.7513 31.0143C14.7299 32.4244 15.8558 33.5845 17.2654 33.606H17.305C18.6971 33.606 19.8357 32.4883 19.8572 31.0914L19.9993 21.6917L26.0148 17.3573L26.6295 32.8853L21.0046 42.5545C20.2107 43.9188 20.5832 45.6624 21.865 46.5833L29.9873 52.4196C31.3486 51.2336 33.0976 50.569 34.933 50.569C35.2436 50.569 35.5522 50.589 35.8573 50.6271C35.8456 49.6877 35.4033 48.7658 34.582 48.1755L27.6998 43.2308L31.4414 36.7993L34.9184 36.6616L39.3714 51.9181C42.1975 53.9815 43.1531 57.6338 41.9451 60.7373L42.2537 61.7934C42.7263 63.4135 44.4245 64.3514 46.0529 63.8764C47.6774 63.4022 48.61 61.7011 48.1359 60.0766L40.1776 32.8091L40.1605 32.8194L39.1776 33.4322C37.1796 34.6777 34.5571 34.062 33.3164 32.0723C32.0737 30.0782 32.6826 27.4538 34.6767 26.2111L39.7733 23.034L39.6463 19.8333C40.3665 20.6361 41.9715 22.4246 42.6873 23.2224L35.5766 27.6549C34.3798 28.401 34.0146 29.9757 34.7607 31.1725C35.5058 32.3677 37.08 32.7349 38.2777 31.9884L47.9689 25.947C49.316 25.1076 49.5773 23.2546 48.5192 22.0755Z" fill="white"/>
<path d="M37.6537 5.08179C37.538 2.16145 35.0771 -0.111945 32.1572 0.00426389C29.2374 0.119984 26.964 2.58087 27.0797 5.50073C27.1954 8.42059 29.6563 10.694 32.5762 10.5783C35.496 10.4625 37.7694 8.00165 37.6537 5.08179Z" fill="white"/>
</g>
<defs>
<clipPath id="clip0_52791_4944">
<rect width="64" height="64" fill="white"/>
</clipPath>
</defs>
</svg> 