<?xml version="1.0" encoding="UTF-8"?>
<svg width="64" height="64" viewBox="0 0 64 64" fill="none" xmlns="http://www.w3.org/2000/svg">
    <g clip-path="url(#clip0_52967_23445)">
    <g mask="url(#mask0_52967_23445)">
    <path d="M38.0541 15.9997C36.5875 18.533 37.4675 21.813 40.0008 23.2797C42.5341 24.7464 45.8141 23.8664 47.2808 21.333C48.7475 18.7997 47.8675 15.5197 45.3341 14.053C42.8008 12.5864 39.5208 13.4664 38.0541 15.9997Z" fill="white"/>
    <path d="M42.2406 27.76C42.2406 27.76 37.8939 25.2534 35.3072 23.76C29.6272 20.4534 27.2806 13.5467 29.4939 7.57338C29.9472 6.34671 29.4672 4.98671 28.3472 4.34671C26.9339 3.54671 25.0939 4.16005 24.5339 5.68005C22.0006 12.3734 23.6006 19.9467 28.4272 25.0667L16.0273 46.5333C15.2806 47.8133 15.7339 49.44 17.0139 50.1867C18.2939 50.9333 19.9206 50.48 20.6673 49.2L23.3339 44.5867L27.9472 47.2533L21.2806 58.8C20.5339 60.08 20.9873 61.7067 22.2673 62.4533C23.5473 63.2 25.1739 62.7467 25.9206 61.4667L41.3606 34.7467C43.9739 38.32 44.7206 43.0667 43.1206 47.3333C42.6672 48.5333 43.1739 49.8933 44.2672 50.5333C45.6806 51.36 47.5206 50.7467 48.1072 49.2C50.6939 42.2133 49.2006 33.6267 42.2406 27.76Z" fill="white"/>
    <path d="M34.0003 10.1332C35.9203 11.2266 38.347 10.5866 39.467 8.66656C40.5603 6.74656 39.9203 4.31989 38.0003 3.19989C36.0803 2.10656 33.6536 2.74656 32.5336 4.66656C31.4403 6.58656 32.0803 9.03989 34.0003 10.1332Z" fill="white"/>
    </g>
    </g>
    <defs>
    <clipPath id="clip0_52967_23445">
    <rect width="64" height="64" fill="white"/>
    </clipPath>
    </defs>
</svg> 