<?xml version="1.0" encoding="UTF-8"?>
<svg width="58" height="58" viewBox="0 0 58 58" fill="none" xmlns="http://www.w3.org/2000/svg">
<g clip-path="url(#clip0_52972_2441)">
<path d="M28.0896 1.09229C24.1419 1.09229 20.9304 4.30392 20.9304 8.25143C20.9304 12.1991 24.1419 15.4107 28.0896 15.4107C32.0375 15.4107 35.2492 12.1989 35.2492 8.25143C35.2493 4.3037 32.0374 1.09229 28.0896 1.09229Z" fill="white"/>
<path d="M48.255 35.614C47.3732 34.7054 46.2165 34.1699 44.9668 34.0811C44.9996 33.848 45.0176 33.6103 45.0176 33.3684V33.0961L56.9507 28.1535C57.8176 27.7943 58.2294 26.8004 57.8703 25.9332C57.5112 25.0663 56.5173 24.6547 55.6501 25.0137L45.0176 29.4176V22.4482C45.0176 19.6374 42.7308 17.3506 39.9201 17.3506H28.9997C27.6381 17.3506 26.3582 17.8807 25.3952 18.8435L17.6738 26.5649C16.7108 27.5274 16.1804 28.8077 16.1804 30.1695C16.1804 31.5314 16.7107 32.8116 17.6733 33.7741L22.6018 38.7025L3.39844 46.6566V38.2795C3.39844 37.3412 2.63764 36.5803 1.69922 36.5803C0.760797 36.5803 0 37.3412 0 38.2795V49.1995C0 49.767 0.283316 50.2971 0.755133 50.6125C1.03879 50.802 1.36798 50.8987 1.69933 50.8987C1.91932 50.8987 2.14034 50.856 2.34945 50.7695L25.2025 41.3035L25.3951 41.4961C26.1546 42.2555 27.1117 42.7445 28.15 42.9176C28.0614 44.304 28.5346 45.7216 29.5757 46.7949L37.8808 55.3597C38.8491 56.3581 40.1485 56.9078 41.5399 56.9078C42.8725 56.9078 44.133 56.3967 45.089 55.4689C47.1065 53.5119 47.1555 50.2782 45.1985 48.261L36.8936 39.6962C36.1254 38.9044 35.1486 38.396 34.0832 38.2189C34.0957 38.0207 34.0977 37.822 34.0873 37.6236L36.133 36.7763C36.9897 37.7274 38.1988 38.3542 39.5524 38.4513C39.3413 39.9565 39.7998 41.5406 40.9376 42.7135L49.243 51.2782C50.2115 52.2766 51.5109 52.8263 52.902 52.8263C54.2341 52.8263 55.4946 52.3154 56.4517 51.3873C58.4688 49.4299 58.5176 46.1963 56.5608 44.1791L48.255 35.614ZM32.7898 34.4827C32.73 34.4162 32.6683 34.3509 32.6043 34.2869L28.4868 30.1696L31.1109 27.5456H34.8224V33.3682C34.8224 33.4585 34.825 33.5483 34.8297 33.6375L32.7898 34.4827Z" fill="white"/>
</g>
<defs>
<clipPath id="clip0_52972_2441">
<rect width="58" height="58" fill="white"/>
</clipPath>
</defs>
</svg> 