<?xml version="1.0" encoding="UTF-8"?>
<svg width="64" height="64" viewBox="0 0 64 64" fill="none" xmlns="http://www.w3.org/2000/svg">
    <g clip-path="url(#clip0_52967_23453)">
    <path d="M57.5592 13.5092C57.161 12.2476 55.8153 11.5479 54.5545 11.9457L43.6808 15.3764L26.4377 18.1424L18.1675 14.6271L20.0191 3.82897C20.2427 2.52528 19.3671 1.2872 18.0633 1.06365C16.7599 0.8401 15.5215 1.71568 15.298 3.01936L13.1261 15.6852C12.9384 16.7798 13.5277 17.8598 14.5499 18.2942L23.0921 21.9251L23.4367 38.0898L20.4074 43.324L8.27099 47.884C6.72314 48.4655 5.9399 50.1917 6.52146 51.7395C7.10313 53.2878 8.82993 54.0705 10.377 53.4891L23.5155 48.5526C24.1634 48.3092 24.7069 47.8487 25.0537 47.2498L30.4041 37.4289L30.4931 37.4194L30.3458 48.3949L20.9071 59.0179C19.8088 60.254 19.9206 62.1463 21.1566 63.2445C22.3926 64.3428 24.285 64.2309 25.3832 62.995L35.5623 51.5385C36.04 51.0009 36.3081 50.3093 36.3178 49.5901L36.1072 21.4108C36.1072 21.4108 44.8356 20.0351 44.9501 19.999L55.9957 16.5142C57.2571 16.1159 57.9571 14.7706 57.5592 13.5092Z" fill="white"/>
    <path d="M29.7306 15.7333C36.2074 14.0075 34.0738 4.63456 27.4922 5.87664C21.0154 7.60243 23.1492 16.9754 29.7306 15.7333Z" fill="white"/>
    <path d="M44.5687 5.81608C43.398 3.57959 43.8322 1.45805 44.4414 0.0244141C40.4019 0.59847 38.2033 5.40747 40.4811 8.84568C41.6876 8.60964 43.6324 7.907 44.5687 5.81608Z" fill="white"/>
    <path d="M50.9774 6.9489C51.0223 6.74047 51.0571 6.52779 51.0793 6.31074C51.3973 3.1788 49.1479 0.379497 46.0375 0C45.4692 1.06052 44.8078 2.93588 45.7254 4.92421C48.1424 4.73053 49.8922 5.87739 50.9774 6.9489Z" fill="white"/>
    <path d="M44.7535 11.4701C47.1497 11.7134 49.3512 10.4538 50.4239 8.45589C49.6384 7.52145 48.1213 6.20152 45.8996 6.34872C44.9055 8.6312 43.0079 9.62712 41.5262 10.0615C42.3985 10.8297 43.5091 11.3438 44.7535 11.4701Z" fill="white"/>
    </g>
    <defs>
    <clipPath id="clip0_52967_23453">
    <rect width="64" height="64" fill="white"/>
    </clipPath>
    </defs>
</svg> 